<svg width="185" height="175" viewBox="0 0 185 175" fill="none" xmlns="http://www.w3.org/2000/svg">
<g clip-path="url(#clip0_145_213)">
<path d="M184.372 78.7509C183.468 77.7931 181.916 77.7212 180.911 78.5747L176.1 82.6588L150.014 58.1912C149.053 57.2913 147.503 57.2937 146.547 58.2051C145.593 59.1142 145.598 60.5823 146.562 61.4845L172.447 85.7619L159.632 96.6412L117.011 55.8047L159.377 17.8927C160.36 17.0115 160.404 15.5434 159.473 14.6134C158.538 13.6811 156.989 13.6463 156.006 14.5206L111.821 54.063C111.343 54.4921 111.066 55.0835 111.053 55.7073C111.041 56.3312 111.299 56.9319 111.76 57.3772L115.685 61.1389L107.038 69.6968L90.3584 68.0153C89.6204 67.9318 88.8972 68.1823 88.3725 68.674L81.5935 75.0309L68.9916 63.2563L73.238 59.1885C73.6989 58.7455 73.9564 58.1425 73.9441 57.5186C73.9318 56.8948 73.6572 56.3034 73.1767 55.8743L28.9941 16.3342C28.0134 15.4576 26.459 15.4924 25.5274 16.427C24.5957 17.357 24.6399 18.8251 25.623 19.7064L55.4385 46.3841L11.7756 86.9122L4.08948 80.3883C3.08427 79.5348 1.53233 79.6113 0.627642 80.5645C-0.277045 81.5177 -0.193687 82.9835 0.813973 83.8392L23.8332 103.383C24.2991 103.78 24.8875 103.977 25.471 103.977C26.106 103.977 26.7385 103.745 27.2166 103.288L31.387 99.2921L54.3131 120.682L50.101 124.734C49.1571 125.643 49.162 127.099 50.1158 127.999L58.7115 136.13C58.7115 136.13 58.7164 136.133 58.7164 136.135C58.7164 136.137 58.7189 136.14 58.7213 136.14L67.3195 144.18L75.9055 152.304L84.5012 160.436C84.9793 160.888 85.607 161.115 86.2346 161.115C86.8623 161.115 87.4899 160.888 87.968 160.436L92.4154 156.228L96.9364 160.447C97.412 160.892 98.0348 161.115 98.6575 161.115C99.2852 161.115 99.9128 160.888 100.391 160.436L107.253 153.944L108.266 154.902C108.744 155.354 109.372 155.581 109.999 155.581C110.627 155.581 111.254 155.354 111.733 154.902L118.595 148.41L119.608 149.368C120.086 149.821 120.713 150.048 121.341 150.048C121.969 150.048 122.596 149.821 123.074 149.368L129.937 142.877L130.947 143.832C131.425 144.285 132.052 144.512 132.68 144.512C133.308 144.512 133.935 144.285 134.414 143.832L143.009 135.701C143.968 134.794 143.968 133.329 143.009 132.422L130.246 120.348L153.314 97.1955L157.786 101.481C158.264 101.941 158.896 102.17 159.531 102.17C160.115 102.17 160.703 101.973 161.169 101.577L184.188 82.0326C185.194 81.1698 185.277 79.7041 184.372 78.7509ZM60.3738 80.0427C60.3738 85.6389 55.561 90.1892 49.6475 90.1892C47.2938 90.1892 45.0333 89.4564 43.1896 88.1391L58.2065 73.9316C59.599 75.678 60.3738 77.8163 60.3738 80.0427ZM61.683 70.643L65.7749 66.7722L67.9864 68.8386L63.4801 73.2034C62.98 72.2966 62.3793 71.4385 61.683 70.643ZM25.368 98.4525L15.4312 90.0153L59.0033 49.573L67.9913 57.616L25.368 98.4525ZM39.7131 91.4277C40.581 92.1072 41.5175 92.6893 42.513 93.174C41.7358 93.9301 40.934 94.7163 40.1274 95.5048C39.1516 96.458 38.2004 97.3834 37.281 98.2763L34.8611 96.0197L39.7131 91.4277ZM57.8044 123.936L62.9579 128.744L60.4253 131.19L55.3012 126.343L57.8044 123.936ZM69.0308 139.259L63.9092 134.47L66.4663 132.018L71.6101 136.817L69.0308 139.259ZM75.1013 140.075L80.2647 144.892L77.6339 147.381L72.5049 142.529L75.1013 140.075ZM86.2322 155.512L81.1031 150.66L83.7584 148.148L88.9217 152.968L86.2322 155.512ZM132.678 138.906L131.668 137.951L121.77 128.588C121.77 128.588 121.767 128.588 121.767 128.586L118.759 125.74C117.801 124.833 116.251 124.833 115.292 125.74C114.334 126.647 114.334 128.113 115.292 129.02L126.47 139.591L121.341 144.442L107.42 131.274C106.461 130.367 104.912 130.367 103.953 131.274C102.995 132.181 102.995 133.646 103.953 134.553L106.966 137.404L115.128 145.126L109.999 149.978L101.95 142.367L99.089 139.66C99.089 139.66 99.0866 139.66 99.0866 139.658L96.0783 136.812C95.1197 135.905 93.5702 135.905 92.6115 136.812C91.6529 137.719 91.6529 139.185 92.6115 140.091L98.2383 145.414L103.787 150.662L98.6453 155.526L40.7722 101.532C41.7014 100.63 42.665 99.691 43.6481 98.7285C45.0922 97.3185 46.5142 95.9293 47.7793 94.714C48.3971 94.7836 49.0174 94.8276 49.6475 94.8276C58.2678 94.8276 65.2772 88.1947 65.2772 80.0427C65.2772 79.4328 65.2282 78.8298 65.1497 78.2314L71.4777 72.0994L78.1145 78.2987L54.9702 100.009C54.4725 100.475 54.2101 101.12 54.2494 101.783C54.2886 102.446 54.622 103.058 55.1712 103.471C55.7425 103.905 69.1681 113.523 92.4792 91.1749L137.807 134.055L132.678 138.906ZM126.774 117.062L94.1782 86.2257C93.7099 85.7827 93.1289 85.5369 92.4056 85.5462C91.7412 85.5555 91.1136 85.8198 90.6575 86.2767C75.6186 101.414 65.5445 101.873 61.0014 100.881L90.9959 72.7442L102.757 73.9293L100.992 75.678C100.055 76.6033 100.092 78.0714 101.068 78.9573C102.046 79.8409 103.595 79.8108 104.534 78.8831L118.627 64.9378L149.555 94.1945L126.774 117.062ZM131.062 50.4799C131.062 54.4758 134.499 57.7274 138.724 57.7274C142.948 57.7274 146.385 54.4758 146.385 50.4799C146.385 46.4839 142.948 43.2323 138.724 43.2323C134.499 43.2323 131.062 46.4839 131.062 50.4799ZM141.482 50.4799C141.482 51.9178 140.244 53.089 138.724 53.089C137.204 53.089 135.965 51.9178 135.965 50.4799C135.965 49.0419 137.204 47.8708 138.724 47.8708C140.244 47.8708 141.482 49.0419 141.482 50.4799Z" fill="#D6D5A8"/>
</g>
<defs>
<clipPath id="clip0_145_213">
<rect width="185" height="175" fill="white"/>
</clipPath>
</defs>
</svg>
