<svg width="381" height="494" viewBox="0 0 381 494" fill="none" xmlns="http://www.w3.org/2000/svg">
<path d="M360.216 235.149H20.0458C14.7311 235.155 9.63592 237.32 5.8779 241.168C2.11988 245.017 0.00599492 250.235 0 255.678V472.572C0.00604247 478.015 2.11992 483.233 5.87793 487.082C9.63594 490.93 14.7312 493.095 20.0458 493.101H360.216C365.53 493.095 370.626 490.93 374.384 487.082C378.142 483.233 380.256 478.015 380.262 472.572V255.678C380.256 250.235 378.142 245.017 374.384 241.168C370.626 237.32 365.53 235.155 360.216 235.149Z" fill="#6C63FF"/>
<path d="M360.216 235.149H20.0458C14.7311 235.155 9.63592 237.32 5.8779 241.168C2.11988 245.017 0.00599492 250.235 0 255.678V472.572C0.00604247 478.015 2.11992 483.233 5.87793 487.082C9.63594 490.93 14.7312 493.095 20.0458 493.101H360.216C365.53 493.095 370.626 490.93 374.384 487.082C378.142 483.233 380.256 478.015 380.262 472.572V255.678C380.256 250.235 378.142 245.017 374.384 241.168C370.626 237.32 365.53 235.155 360.216 235.149ZM366.794 390.947C366.713 413.028 358.184 434.197 343.038 449.912C327.892 465.628 307.334 474.638 285.776 475.009C251.259 475.47 304.873 475.649 263.244 475.649C168.051 475.649 68.7918 474.717 31.757 474.113C26.8843 474.011 22.244 471.961 18.8268 468.402C15.4095 464.843 13.4862 460.057 13.4673 455.066V255.694C13.4693 253.907 14.1623 252.193 15.3949 250.927C16.6274 249.662 18.2992 248.948 20.0444 248.942H360.202C361.947 248.944 363.62 249.653 364.855 250.915C366.091 252.177 366.788 253.889 366.794 255.676V390.947Z" fill="#3F3D56"/>
<path d="M318.341 110.254H59.1676C56.8745 110.258 54.6383 110.986 52.7642 112.339C50.8902 113.692 49.4697 115.605 48.6966 117.816L8.66898 232.823C8.07158 234.54 7.88531 236.378 8.1258 238.184C8.36628 239.99 9.02651 241.71 10.051 243.2C11.0755 244.69 12.4343 245.906 14.0132 246.747C15.592 247.587 17.3449 248.027 19.1244 248.03L366.719 248.662H366.734C368.574 248.662 370.385 248.194 372.004 247.301C373.624 246.408 375.002 245.117 376.015 243.544C377.027 241.972 377.643 240.166 377.806 238.29C377.97 236.413 377.676 234.525 376.952 232.793L376.346 233.059L376.952 232.793L328.559 117.154C327.703 115.105 326.279 113.359 324.462 112.132C322.646 110.905 320.517 110.252 318.341 110.254V110.254Z" fill="#3F3D56"/>
<path d="M377.852 235.29C377.851 236.833 377.544 238.358 376.952 239.776L328.562 328.792C327.7 330.836 326.274 332.578 324.458 333.802C322.642 335.027 320.516 335.681 318.342 335.684H59.1717C56.8777 335.682 54.6403 334.955 52.7648 333.602C50.8892 332.249 49.4668 330.337 48.6917 328.126L8.67166 239.745C8.18112 238.337 7.96636 236.844 8.03964 235.351C8.11293 233.858 8.47284 232.394 9.09879 231.044C9.72474 229.693 10.6045 228.482 11.6877 227.48C12.7709 226.478 14.0363 225.704 15.4117 225.203C16.6014 224.763 17.8567 224.538 19.1217 224.537L61.5817 224.455L78.9117 224.425L306.952 224.015L324.292 223.984L366.722 223.902H366.732C369.681 223.903 372.509 225.103 374.594 227.238C376.679 229.374 377.851 232.27 377.852 235.29V235.29Z" fill="#3F3D56"/>
<path d="M45.5475 397.845C50.6869 397.845 121.262 402.262 121.262 407.525C121.262 412.788 50.6869 416.905 45.5475 416.905C43.0795 416.905 40.7126 415.901 38.9675 414.113C37.2223 412.326 36.2419 409.902 36.2419 407.375C36.2419 404.847 37.2223 402.423 38.9675 400.636C40.7126 398.849 43.0795 397.845 45.5475 397.845V397.845Z" fill="#3F3D56"/>
<path d="M302.202 40.2896H83.6716C77.815 40.2965 72.2003 42.6821 68.0591 46.9232C63.9179 51.1643 61.5884 56.9144 61.5816 62.9121V335.684H318.342C320.45 335.691 322.516 335.076 324.292 333.912V62.9121C324.285 56.9144 321.955 51.1643 317.814 46.9232C313.673 42.6822 308.058 40.2965 302.202 40.2896Z" fill="#E6E6E6"/>
<path d="M218.792 58.6313H99.0316C93.6988 58.6367 88.5857 60.8079 84.8139 64.6687C81.0421 68.5296 78.9195 73.7648 78.9116 79.2263V335.684H306.952V148.917C306.925 124.98 297.628 102.032 281.1 85.1059C264.573 68.18 242.165 58.659 218.792 58.6313V58.6313Z" fill="white"/>
<path d="M268.102 312.908H117.762C116.462 312.908 115.216 313.436 114.297 314.377C113.378 315.319 112.862 316.595 112.862 317.926C112.862 319.257 113.378 320.533 114.297 321.474C115.216 322.415 116.462 322.944 117.762 322.944H268.102C269.401 322.944 270.648 322.415 271.566 321.474C272.485 320.533 273.002 319.257 273.002 317.926C273.002 316.595 272.485 315.319 271.566 314.377C270.648 313.436 269.401 312.908 268.102 312.908V312.908Z" fill="#E4E4E4"/>
<path d="M268.102 293.061H117.762C116.461 293.061 115.213 293.59 114.293 294.532C113.373 295.474 112.857 296.752 112.857 298.084C112.857 299.416 113.373 300.694 114.293 301.636C115.213 302.578 116.461 303.107 117.762 303.107H268.102C269.403 303.107 270.65 302.578 271.57 301.636C272.49 300.694 273.007 299.416 273.007 298.084C273.007 296.752 272.49 295.474 271.57 294.532C270.65 293.59 269.403 293.061 268.102 293.061V293.061Z" fill="#E4E4E4"/>
<path d="M182.932 273.223H117.762C116.462 273.223 115.216 273.752 114.297 274.693C113.378 275.634 112.862 276.911 112.862 278.242C112.862 279.572 113.378 280.849 114.297 281.79C115.216 282.731 116.462 283.26 117.762 283.26H182.932C184.231 283.26 185.477 282.731 186.396 281.79C187.315 280.849 187.832 279.572 187.832 278.242C187.832 276.911 187.315 275.634 186.396 274.693C185.477 273.752 184.231 273.223 182.932 273.223V273.223Z" fill="#E4E4E4"/>
<path d="M268.102 231.665H117.762C116.461 231.665 115.213 232.195 114.293 233.137C113.373 234.079 112.857 235.356 112.857 236.689C112.857 238.021 113.373 239.298 114.293 240.241C115.213 241.183 116.461 241.712 117.762 241.712H268.102C269.403 241.712 270.65 241.183 271.57 240.241C272.49 239.298 273.007 238.021 273.007 236.689C273.007 235.356 272.49 234.079 271.57 233.137C270.65 232.195 269.403 231.665 268.102 231.665Z" fill="#E4E4E4"/>
<path d="M268.102 211.828H117.762C116.462 211.828 115.216 212.357 114.297 213.298C113.378 214.239 112.862 215.515 112.862 216.846C112.862 218.177 113.378 219.454 114.297 220.395C115.216 221.336 116.462 221.864 117.762 221.864H268.102C269.401 221.864 270.648 221.336 271.566 220.395C272.485 219.454 273.002 218.177 273.002 216.846C273.002 215.515 272.485 214.239 271.566 213.298C270.648 212.357 269.401 211.828 268.102 211.828V211.828Z" fill="#E4E4E4"/>
<path d="M182.932 191.981H117.762C116.461 191.981 115.213 192.51 114.293 193.452C113.373 194.394 112.857 195.672 112.857 197.004C112.857 198.336 113.373 199.614 114.293 200.556C115.213 201.498 116.461 202.027 117.762 202.027H182.932C184.232 202.027 185.48 201.498 186.4 200.556C187.32 199.614 187.837 198.336 187.837 197.004C187.837 195.672 187.32 194.394 186.4 193.452C185.48 192.51 184.232 191.981 182.932 191.981Z" fill="#E4E4E4"/>
<path d="M268.102 150.423H117.762C116.461 150.423 115.213 150.952 114.293 151.894C113.373 152.836 112.857 154.114 112.857 155.446C112.857 156.778 113.373 158.056 114.293 158.998C115.213 159.94 116.461 160.469 117.762 160.469H268.102C269.403 160.469 270.65 159.94 271.57 158.998C272.49 158.056 273.007 156.778 273.007 155.446C273.007 154.114 272.49 152.836 271.57 151.894C270.65 150.952 269.403 150.423 268.102 150.423Z" fill="#6C63FF"/>
<path d="M268.102 130.585H117.762C116.461 130.585 115.213 131.115 114.293 132.057C113.373 132.999 112.857 134.276 112.857 135.609C112.857 136.941 113.373 138.219 114.293 139.161C115.213 140.103 116.461 140.632 117.762 140.632H268.102C269.403 140.632 270.65 140.103 271.57 139.161C272.49 138.219 273.007 136.941 273.007 135.609C273.007 134.276 272.49 132.999 271.57 132.057C270.65 131.115 269.403 130.585 268.102 130.585Z" fill="#6C63FF"/>
<path d="M182.932 110.738H117.762C116.461 110.738 115.213 111.268 114.293 112.21C113.373 113.152 112.857 114.429 112.857 115.762C112.857 117.094 113.373 118.371 114.293 119.314C115.213 120.256 116.461 120.785 117.762 120.785H182.932C184.232 120.785 185.48 120.256 186.4 119.314C187.32 118.371 187.837 117.094 187.837 115.762C187.837 114.429 187.32 113.152 186.4 112.21C185.48 111.268 184.232 110.738 182.932 110.738Z" fill="#6C63FF"/>
<path d="M316.099 79.0062C337.175 79.0062 354.262 61.5082 354.262 39.9233C354.262 18.3384 337.175 0.840332 316.099 0.840332C295.022 0.840332 277.936 18.3384 277.936 39.9233C277.936 61.5082 295.022 79.0062 316.099 79.0062Z" fill="#6C63FF"/>
<path d="M310.893 60.2642C310.234 60.2642 309.584 60.107 308.994 59.8051C308.405 59.5032 307.892 59.0649 307.497 58.5249L297.085 44.3081C296.749 43.8515 296.504 43.3314 296.364 42.7777C296.225 42.224 296.193 41.6475 296.271 41.0812C296.35 40.5149 296.536 39.97 296.82 39.4777C297.105 38.9854 297.481 38.5554 297.928 38.2123C298.374 37.8691 298.883 37.6197 299.424 37.4781C299.965 37.3366 300.528 37.3058 301.081 37.3875C301.633 37.4691 302.165 37.6617 302.645 37.9541C303.125 38.2465 303.544 38.633 303.878 39.0915L310.689 48.3918L328.184 21.5177C328.808 20.5584 329.779 19.8924 330.883 19.6662C331.987 19.4401 333.134 19.6724 334.07 20.312C335.007 20.9516 335.658 21.9461 335.878 23.0767C336.099 24.2073 335.872 25.3815 335.248 26.3409L314.425 58.3282C314.048 58.9067 313.542 59.3843 312.948 59.7209C312.354 60.0575 311.689 60.2433 311.011 60.2628C310.971 60.2635 310.932 60.2642 310.893 60.2642Z" fill="white"/>
</svg>
