<svg width="124" height="123" viewBox="0 0 124 123" fill="none" xmlns="http://www.w3.org/2000/svg">
<path d="M77.5 100.191L74.7003 98.3385C74.0493 97.9061 73.2026 97.9061 72.5516 98.3385L67.8125 101.471L63.0753 98.3385C62.4243 97.9061 61.5776 97.9061 60.9266 98.3385L56.1875 101.471L51.4503 98.3385C50.7993 97.9061 49.9526 97.9061 49.3016 98.3385L46.5 100.191V57.6562H42.625V103.781C42.625 104.298 42.8381 104.783 43.1966 105.136L43.1927 105.14L60.6302 122.437C61.008 122.812 61.504 123 62 123C62.496 123 62.992 122.812 63.3698 122.437L80.8073 105.14L80.8034 105.136C81.1619 104.783 81.375 104.298 81.375 103.781V67.2656H77.5V100.191ZM50.375 102.248L55.1122 105.38C55.7632 105.813 56.6099 105.813 57.2609 105.38L62 102.248L66.7372 105.38C67.3882 105.813 68.2349 105.813 68.8859 105.38L73.625 102.248L76.3956 104.079L68.9479 111.469H55.0521L47.6044 104.081L50.375 102.248ZM62 118.361L58.9271 115.312H65.0729L62 118.361Z" fill="#D6D5A8"/>
<path d="M36.9927 40.9109C36.7641 40.2151 36.1576 39.7078 35.4272 39.6021L29.8123 38.791L27.2994 33.7423C26.6484 32.4277 24.4764 32.4277 23.8254 33.7423L21.3125 38.793L15.6976 39.604C14.9672 39.7097 14.3627 40.2151 14.1321 40.9128C13.9054 41.6066 14.0934 42.3715 14.6223 42.8808L18.6872 46.811L17.7281 52.3614C17.6041 53.0821 17.9025 53.8105 18.4973 54.241C19.0979 54.6753 19.8884 54.7291 20.5394 54.3871L25.5634 51.7675L30.5873 54.3871C30.8702 54.535 31.1821 54.6081 31.4902 54.6081C31.8913 54.6081 32.2904 54.4851 32.6294 54.241C33.2262 53.8105 33.5246 53.0821 33.3986 52.3614L32.4396 46.811L36.5044 42.8808C37.0295 42.3696 37.2194 41.6047 36.9927 40.9109ZM29.0044 44.7623C28.5491 45.2024 28.3398 45.8405 28.4483 46.4632L28.9153 49.1711L26.4643 47.893C26.1814 47.7451 25.8714 47.672 25.5614 47.672C25.2514 47.672 24.9434 47.7451 24.6586 47.893L22.2076 49.1711L22.6746 46.4632C22.7831 45.8405 22.5738 45.2043 22.1185 44.7623L20.1364 42.8462L22.8761 42.4503C23.5077 42.36 24.0521 41.966 24.335 41.399L25.5614 38.9371L26.7879 41.399C27.0708 41.966 27.6152 42.36 28.2468 42.4503L30.9864 42.8462L29.0044 44.7623Z" fill="#D6D5A8"/>
<path d="M35.0048 16.5915L33.8055 23.5314C33.6815 24.2521 33.9799 24.9805 34.5747 25.4129C35.1753 25.8434 35.9639 25.8991 36.6168 25.557L42.8982 22.2802L49.1796 25.557C49.4624 25.705 49.7744 25.7781 50.0824 25.7781C50.4835 25.7781 50.8826 25.655 51.2217 25.4129C51.8184 24.9805 52.1168 24.2521 51.9909 23.5314L50.7916 16.5915L55.8756 11.6753C56.4026 11.1641 56.5924 10.4011 56.3657 9.70733C56.1371 9.01161 55.5307 8.50424 54.8002 8.39853L47.7787 7.38571L44.6361 1.07235C43.9851 -0.242215 41.8132 -0.242215 41.1622 1.07235L38.0215 7.38571L30.9961 8.39853C30.2657 8.50424 29.6612 9.00969 29.4306 9.70733C29.2039 10.4011 29.3919 11.166 29.9208 11.6753L35.0048 16.5915ZM39.587 11.043C40.2186 10.9527 40.7631 10.5587 41.0459 9.99177L42.9001 6.26525L44.7562 9.99177C45.0391 10.5587 45.5836 10.9527 46.2152 11.043L50.3614 11.6427L47.3602 14.5447C46.9049 14.9848 46.6957 15.6229 46.8042 16.2456L47.5114 20.3449L43.803 18.4096C43.5201 18.2616 43.2101 18.1886 42.9001 18.1886C42.5901 18.1886 42.2821 18.2616 41.9972 18.4096L38.2889 20.3449L38.9961 16.2456C39.1046 15.6229 38.8953 14.9867 38.44 14.5447L35.4388 11.6427L39.587 11.043Z" fill="#D6D5A8"/>
<path d="M88.5747 28.9494L96.565 21.2235C97.092 20.7122 97.2819 19.9492 97.0552 19.2555C96.8266 18.5597 96.2201 18.0524 95.4897 17.9467L84.4498 16.3553L79.5111 6.4327C78.8601 5.11814 76.6882 5.11814 76.0372 6.4327L71.0985 16.3553L60.0586 17.9486C59.3282 18.0543 58.7237 18.5597 58.4931 19.2574C58.2664 19.9512 58.4544 20.7161 58.9833 21.2254L66.9736 28.9513L65.0864 39.8599C64.9624 40.5806 65.2608 41.309 65.8556 41.7395C66.4562 42.1719 67.2467 42.2276 67.8977 41.8855L77.7732 36.7349L87.6486 41.8855C87.9315 42.0335 88.2434 42.1065 88.5515 42.1065C88.9526 42.1065 89.3517 41.9835 89.6907 41.7395C90.2875 41.309 90.5859 40.5806 90.4599 39.8599L88.5747 28.9494ZM85.1396 26.9026C84.6842 27.3427 84.475 27.9808 84.5835 28.6035L85.9785 36.6696L78.6761 32.8623C78.3932 32.7143 78.0832 32.6413 77.7732 32.6413C77.4632 32.6413 77.1551 32.7143 76.8703 32.8623L69.5679 36.6696L70.9629 28.6035C71.0714 27.9808 70.8621 27.3446 70.4068 26.9026L64.4994 21.1908L72.6621 20.0127C73.2937 19.9223 73.8381 19.5284 74.121 18.9614L77.7732 11.6256L81.4254 18.9614C81.7082 19.5284 82.2527 19.9223 82.8843 20.0127L91.047 21.1908L85.1396 26.9026Z" fill="#D6D5A8"/>
<path d="M110.691 50.3992L105.78 49.6919L103.581 45.2755C102.93 43.9609 100.758 43.9609 100.107 45.2755L97.9096 49.6919L92.9961 50.3992C92.2657 50.5049 91.6612 51.0103 91.4306 51.7061C91.2039 52.4018 91.3919 53.1667 91.9208 53.676L95.4781 57.1142L94.6372 61.9689C94.5132 62.6896 94.8116 63.418 95.4064 63.8485C95.7454 64.0925 96.1446 64.2155 96.5456 64.2155C96.8537 64.2155 97.1637 64.1425 97.4485 63.9945L101.843 61.7037L106.237 63.9945C106.89 64.3366 107.68 64.279 108.279 63.8504C108.876 63.418 109.174 62.6896 109.048 61.9689L108.209 57.1142L111.765 53.676C112.292 53.1648 112.482 52.4018 112.255 51.7061C112.026 51.0103 111.422 50.503 110.691 50.3992ZM104.776 55.0674C104.321 55.5075 104.112 56.1456 104.22 56.7683L104.567 58.7805L102.748 57.8311C102.465 57.6831 102.155 57.6101 101.845 57.6101C101.535 57.6101 101.227 57.6831 100.942 57.8311L99.1225 58.7805L99.4712 56.7683C99.5797 56.1456 99.3705 55.5095 98.9152 55.0674L97.4407 53.6414L99.4771 53.3493C100.109 53.2589 100.653 52.865 100.936 52.298L101.847 50.4684L102.759 52.298C103.042 52.8669 103.586 53.2589 104.218 53.3493L106.254 53.6414L104.776 55.0674Z" fill="#D6D5A8"/>
<path d="M56.1875 71.1094H60.0625C60.0625 57.3334 49.6329 46.125 36.8125 46.125V49.9688C47.4959 49.9688 56.1875 59.4532 56.1875 71.1094Z" fill="#D6D5A8"/>
<path d="M67.8125 80.7188H71.6875C71.6875 67.1753 77.8991 55.7344 85.25 55.7344V51.8906C75.4714 51.8906 67.8125 64.5539 67.8125 80.7188Z" fill="#D6D5A8"/>
<path d="M52.3125 48.0469H56.1875C56.1875 43.8072 58.7954 40.3594 62 40.3594V36.5156C56.6583 36.5156 52.3125 41.6874 52.3125 48.0469Z" fill="#D6D5A8"/>
<path d="M38.75 30.75C41.9546 30.75 44.5625 34.1978 44.5625 38.4375H48.4375C48.4375 32.078 44.0917 26.9062 38.75 26.9062V30.75Z" fill="#D6D5A8"/>
<path d="M79.4375 46.125V42.2812C69.8217 42.2812 62 50.9028 62 61.5H65.875C65.875 53.0226 71.9607 46.125 79.4375 46.125Z" fill="#D6D5A8"/>
<path d="M71.6875 84.5625H67.8125V88.4062H71.6875V84.5625Z" fill="#D6D5A8"/>
<path d="M65.875 65.3438H62V69.1875H65.875V65.3438Z" fill="#D6D5A8"/>
<path d="M60.0625 74.9531H56.1875V78.7969H60.0625V74.9531Z" fill="#D6D5A8"/>
<path d="M60.0625 82.6406H56.1875V86.4844H60.0625V82.6406Z" fill="#D6D5A8"/>
<path d="M60.0625 90.3281H56.1875V94.1719H60.0625V90.3281Z" fill="#D6D5A8"/>
<path d="M27.125 57.6562H23.25V61.5H27.125V57.6562Z" fill="#D6D5A8"/>
<path d="M3.875 30.75H0V34.5938H3.875V30.75Z" fill="#D6D5A8"/>
<path d="M19.375 23.0625H15.5V26.9062H19.375V23.0625Z" fill="#D6D5A8"/>
<path d="M98.8125 32.6719H94.9375V36.5156H98.8125V32.6719Z" fill="#D6D5A8"/>
<path d="M120.125 19.2188H116.25V23.0625H120.125V19.2188Z" fill="#D6D5A8"/>
<path d="M11.625 9.60938H7.75V13.4531H11.625V9.60938Z" fill="#D6D5A8"/>
<path d="M25.1875 7.6875H21.3125V11.5312H25.1875V7.6875Z" fill="#D6D5A8"/>
<path d="M96.875 5.76562H93V9.60938H96.875V5.76562Z" fill="#D6D5A8"/>
<path d="M108.5 21.1406H104.625V24.9844H108.5V21.1406Z" fill="#D6D5A8"/>
<path d="M7.75 46.125H3.875V49.9688H0V53.8125H3.875V57.6562H7.75V53.8125H11.625V49.9688H7.75V46.125Z" fill="#D6D5A8"/>
<path d="M118.188 30.75H114.312V34.5938H110.438V38.4375H114.312V42.2812H118.188V38.4375H122.062V34.5938H118.188V30.75Z" fill="#D6D5A8"/>
<path d="M118.188 0C114.983 0 112.375 2.58684 112.375 5.76562C112.375 8.94441 114.983 11.5312 118.188 11.5312C121.392 11.5312 124 8.94441 124 5.76562C124 2.58684 121.392 0 118.188 0ZM118.188 7.6875C117.118 7.6875 116.25 6.8265 116.25 5.76562C116.25 4.70475 117.118 3.84375 118.188 3.84375C119.257 3.84375 120.125 4.70475 120.125 5.76562C120.125 6.8265 119.257 7.6875 118.188 7.6875Z" fill="#D6D5A8"/>
</svg>
