<svg width="133" height="136" viewBox="0 0 133 136" fill="none" xmlns="http://www.w3.org/2000/svg">
<g clip-path="url(#clip0_145_169)">
<path d="M90.9984 31.0193C98.7193 31.0193 104.998 24.5987 104.998 16.7037C104.998 8.8087 98.7193 2.38818 90.9984 2.38818C83.2775 2.38818 76.9987 8.8087 76.9987 16.7037C76.9987 24.5987 83.2775 31.0193 90.9984 31.0193ZM90.9984 7.16003C96.1457 7.16003 100.332 11.4404 100.332 16.7037C100.332 21.9671 96.1457 26.2474 90.9984 26.2474C90.7254 26.2474 90.4711 26.1878 90.2051 26.1663C92.1091 24.4174 93.3317 21.9074 93.3317 19.0896H88.6651C88.6651 21.4422 86.9875 23.3915 84.7919 23.7804C82.8879 22.0315 81.6652 19.5215 81.6652 16.7037C81.6652 11.4404 85.8512 7.16003 90.9984 7.16003Z" fill="#D6D5A8"/>
<path d="M18.6663 59.6506C26.3872 59.6506 32.6661 53.2301 32.6661 45.3351C32.6661 37.44 26.3872 31.0195 18.6663 31.0195C10.9455 31.0195 4.66656 37.44 4.66656 45.3351C4.66656 53.2301 10.9455 59.6506 18.6663 59.6506ZM18.6663 35.7914C23.8136 35.7914 27.9995 40.0717 27.9995 45.3351C27.9995 48.1528 26.7768 50.6628 24.8729 52.4117C22.6772 52.0228 20.9996 50.0735 20.9996 47.721H16.333C16.333 50.5388 17.5557 53.0488 19.4596 54.7976C19.1936 54.8191 18.9393 54.8788 18.6663 54.8788C13.5191 54.8788 9.33315 50.5984 9.33315 45.3351C9.33315 40.0717 13.5191 35.7914 18.6663 35.7914Z" fill="#D6D5A8"/>
<path d="M131.402 4.89823L117.402 0.126383C116.688 -0.121753 115.911 0.00231482 115.3 0.450868C114.691 0.901808 114.331 1.62236 114.331 2.38824V21.4756V33.4052H81.6652C81.1192 33.4052 80.5896 33.6009 80.1696 33.9564L66.1698 45.886C65.9248 46.0984 65.7218 46.3584 65.5772 46.6519L58.96 60.1872L44.2276 66.6411L31.0701 62.158C30.8321 62.0793 30.5825 62.0363 30.3328 62.0363H11.6665C5.23358 62.0363 0 67.3879 0 73.9659V100.211C0 101.531 1.04298 102.597 2.33329 102.597H9.33317V131.228H0V136H11.6665H23.3329H32.6661C33.9564 136 34.9994 134.933 34.9994 133.614V121.684H39.666H51.3324H67.6655C68.9558 121.684 69.9988 120.618 69.9988 119.298V107.369H83.9985H95.665C96.9553 107.369 97.9983 106.302 97.9983 104.983V93.0533H111.998H123.665H130.664V88.2815H125.998V69.1941C125.998 62.6161 120.764 57.2645 114.331 57.2645H104.998V47.7208H116.665C123.098 47.7208 128.331 42.3692 128.331 35.7912V21.4756C128.331 20.1562 127.288 19.0897 125.998 19.0897H118.998V13.6522L131.402 9.42433C132.356 9.09745 132.998 8.18842 132.998 7.16008C132.998 6.13175 132.356 5.22271 131.402 4.89823ZM94.552 38.1771L93.3317 41.2979L92.1114 38.1771H94.552ZM32.6661 116.913C31.3758 116.913 30.3328 117.979 30.3328 119.298V131.228H25.6662V102.597H37.3327V116.913H32.6661ZM41.9993 116.913V100.211C41.9993 98.8917 40.9563 97.8252 39.666 97.8252H23.3329C22.0426 97.8252 20.9996 98.8917 20.9996 100.211V131.228H13.9998V76.3519H9.33317V97.8252H4.66658V73.9659C4.66658 70.0196 7.8072 66.8082 11.6665 66.8082H18.6663V83.5096H23.3329V66.8082H29.9548L43.5952 71.4559C44.1366 71.6444 44.7292 71.6134 45.2519 71.3867L59.8 65.0116L61.2163 67.1828L61.9232 68.2683L46.2715 76.2683L30.6618 73.9874C29.9921 73.8872 29.3132 74.0948 28.8022 74.5457C28.2935 75.0038 27.9995 75.6599 27.9995 76.3519V88.2815C27.9995 89.6009 29.0425 90.6674 30.3328 90.6674H41.9993C45.8585 90.6674 48.9991 93.8788 48.9991 97.8252V116.913H41.9993ZM67.6655 102.597C66.3752 102.597 65.3322 103.664 65.3322 104.983V116.913H53.6657V97.8252C53.6657 91.2472 48.4322 85.8956 41.9993 85.8956H32.6661V79.1028L46.3345 81.0998C46.8058 81.169 47.2818 81.0879 47.7088 80.8708L66.3752 71.3271C66.7158 71.1529 66.9842 70.8881 67.2012 70.5803C67.2198 70.5541 67.2548 70.5445 67.2735 70.5183L76.385 56.5439L81.6652 52.4926V102.597H67.6655V102.597ZM109.665 88.2815H97.9983V73.9659H109.665V88.2815ZM123.665 35.7912C123.665 39.7375 120.524 42.9489 116.665 42.9489H102.665C101.375 42.9489 100.332 44.0154 100.332 45.3349V59.6504C100.332 60.9698 101.375 62.0363 102.665 62.0363H114.331C118.191 62.0363 121.331 65.2478 121.331 69.1941V88.2815H114.331V71.58C114.331 70.2606 113.288 69.1941 111.998 69.1941H95.665C94.3747 69.1941 93.3317 70.2606 93.3317 71.58V90.6674V102.597H86.3318V47.7208C86.3318 46.8165 85.8325 45.991 85.0415 45.5854C84.2529 45.1845 83.3032 45.268 82.5986 45.812L73.2654 52.9698C73.0531 53.1297 72.8687 53.3277 72.7241 53.5544L65.3322 64.8923L63.3582 61.8621L69.5321 49.2335L82.5099 38.1771H87.0855L91.1641 48.606C91.5211 49.5126 92.3774 50.1067 93.3317 50.1067C94.286 50.1067 95.1423 49.5126 95.4993 48.606L99.5779 38.1771H116.665C117.955 38.1771 118.998 37.1106 118.998 35.7912V23.8615H123.665V35.7912ZM118.998 8.62027V5.6999L123.287 7.16008L118.998 8.62027Z" fill="#D6D5A8"/>
<path d="M60.6656 11.9321H55.999V16.704H60.6656V11.9321Z" fill="#D6D5A8"/>
<path d="M51.3324 11.9321H46.6658V16.704H51.3324V11.9321Z" fill="#D6D5A8"/>
<path d="M41.9993 11.9321H37.3327V16.704H41.9993V11.9321Z" fill="#D6D5A8"/>
</g>
<defs>
<clipPath id="clip0_145_169">
<rect width="133" height="136" fill="white"/>
</clipPath>
</defs>
</svg>
