<svg width="203" height="182" viewBox="0 0 203 182" fill="none" xmlns="http://www.w3.org/2000/svg">
<g clip-path="url(#clip0_146_232)">
<path d="M89.975 142.169C82.0612 148.726 71.1154 150.194 61.4071 146.003C57.8974 144.488 54.9357 142.395 52.617 139.889L39.3979 166.103C38.7964 167.296 39.468 168.195 39.7844 168.526C40.1008 168.856 40.9893 169.588 42.3953 169.238L52.0187 166.836C53.1154 166.563 54.224 166.431 55.3171 166.431C59.9286 166.431 64.2689 168.771 66.3588 172.649L70.7051 180.712C71.3398 181.891 72.5305 182.008 73.0261 182C73.5122 181.994 74.708 181.852 75.309 180.66L96.3358 138.962C94.0255 139.558 91.8377 140.626 89.975 142.169Z" fill="#D6D5A8"/>
<path d="M163.602 166.103L150.383 139.889C148.064 142.396 145.102 144.488 141.593 146.003C131.884 150.194 120.938 148.726 113.025 142.169C111.162 140.626 108.974 139.558 106.663 138.962L127.69 180.66C128.291 181.853 129.487 181.994 129.973 182C130.468 182.008 131.659 181.891 132.294 180.712L136.64 172.649C138.729 168.771 143.07 166.431 147.682 166.431C148.775 166.431 149.884 166.563 150.98 166.836L160.604 169.238C162.009 169.588 162.898 168.856 163.214 168.526C163.532 168.194 164.203 167.295 163.602 166.103Z" fill="#D6D5A8"/>
<path d="M173.986 73.8632C163.007 67.1235 159.6 53.7419 166.23 43.3988C170.216 37.1813 168.142 31.0374 164.872 27.3608C161.601 23.6852 155.381 20.5056 147.734 22.6046C135.014 26.0978 121.219 20.143 116.332 9.04668C113.395 2.37666 106.744 0 101.5 0C96.2557 0 89.6047 2.37666 86.6675 9.04704C81.7813 20.1437 67.9876 26.0978 55.2656 22.605C47.6178 20.5063 41.3989 23.6852 38.1283 27.3611C34.8585 31.0378 32.7845 37.181 36.7696 43.3992C43.3996 53.7419 39.993 67.1239 29.0143 73.8636C22.4145 77.9156 21.3103 84.2575 22.4767 88.8416C23.6432 93.4257 27.7079 98.7098 35.615 99.7929C48.768 101.594 58.313 112.325 57.3459 124.223C56.7639 131.376 61.6062 136.104 66.3311 138.144C71.0564 140.184 78.1986 140.631 84.0729 135.763C88.9584 131.716 95.2304 129.691 101.5 129.691C107.771 129.691 114.04 131.715 118.926 135.763C124.801 140.631 131.944 140.185 136.669 138.144C141.393 136.104 146.235 131.376 145.654 124.224C144.687 112.326 154.232 101.595 167.385 99.7929C175.292 98.7098 179.356 93.4254 180.523 88.8416C181.69 84.2568 180.585 77.9148 173.986 73.8632ZM101.5 119.41C72.7252 119.41 49.3151 98.4218 49.3151 72.6237C49.3151 46.8255 72.7248 25.8369 101.5 25.8369C130.275 25.8369 153.685 46.8252 153.685 72.6233C153.684 98.4215 130.275 119.41 101.5 119.41Z" fill="#D6D5A8"/>
<path d="M101.5 34.5605C78.0896 34.5605 59.0444 51.6358 59.0444 72.6238C59.0444 93.6117 78.0892 110.687 101.5 110.687C124.91 110.687 143.955 93.6117 143.955 72.6238C143.955 51.6358 124.91 34.5605 101.5 34.5605ZM123.257 68.9333L96.8342 86.2358C95.9956 86.785 94.9893 87.0754 93.9648 87.0754C93.7007 87.0754 93.4355 87.0562 93.1714 87.0171C91.8833 86.8262 90.7342 86.1789 89.9833 85.2205L82.0798 75.1316C80.5355 73.1598 81.0664 70.4394 83.2649 69.0549C85.4638 67.6703 88.4977 68.1459 90.0424 70.1174L95.0976 76.5706L117.518 61.889C119.688 60.4689 122.732 60.8926 124.316 62.8384C125.901 64.7836 125.426 67.5121 123.257 68.9333Z" fill="#D6D5A8"/>
</g>
<defs>
<clipPath id="clip0_146_232">
<rect width="203" height="182" fill="white"/>
</clipPath>
</defs>
</svg>
