<svg width="564" height="407" viewBox="0 0 564 407" fill="none" xmlns="http://www.w3.org/2000/svg">
<g clip-path="url(#clip0_101_58)">
<path d="M375.569 407L375.45 406.99L188.431 391.471L18.3693 405.583C13.9291 405.951 9.50688 404.729 6.0755 402.185C2.64412 399.641 0.484671 395.983 0.0722114 392.017C0.0242046 391.555 0.000181999 391.092 0.000140286 390.628V29.3259C-0.0170249 25.5785 1.5416 21.962 4.36744 19.1924C7.19328 16.4227 11.0803 14.7019 15.2589 14.3706L188.431 0L188.551 0.0101491L375.569 15.5293L545.631 1.41714C550.071 1.04867 554.493 2.27096 557.924 4.81512C561.356 7.35928 563.515 11.0169 563.928 14.9834C563.976 15.4452 564 15.9082 564 16.3725V377.674C564.017 381.421 562.458 385.038 559.633 387.807C556.807 390.577 552.92 392.298 548.741 392.629L375.569 407Z" fill="#3F3D56"/>
<path d="M260.698 133.664C224.496 110.111 186.406 87.7779 147.495 67.2872L145.542 66.2589V135.755H263.912L260.698 133.664ZM148.129 133.444V70.3086C185.145 89.8691 221.392 111.093 255.958 133.444L148.129 133.444ZM443.913 276.486C428.256 261.945 412.195 247.736 395.728 233.858C391.188 230.028 386.62 226.229 382.024 222.46C353.977 199.445 325.008 177.557 295.115 156.794L294.766 156.552H145.542V278.444H446.021L443.913 276.486ZM148.129 276.133V158.863H293.88C322.703 178.891 350.746 200.04 378.008 222.31C382.742 226.175 387.444 230.07 392.113 233.997C408.435 247.7 424.376 261.745 439.936 276.133H148.129ZM443.913 276.486C428.256 261.945 412.195 247.736 395.728 233.858C391.188 230.028 386.62 226.229 382.024 222.46C353.977 199.445 325.008 177.557 295.115 156.794L294.766 156.552H145.542V278.444H446.021L443.913 276.486ZM148.129 276.133V158.863H293.88C322.703 178.891 350.746 200.04 378.008 222.31C382.742 226.175 387.444 230.07 392.113 233.997C408.435 247.7 424.376 261.745 439.936 276.133H148.129ZM260.698 133.664C224.496 110.111 186.406 87.7779 147.495 67.2872L145.542 66.2589V135.755H263.912L260.698 133.664ZM148.129 133.444V70.3086C185.145 89.8691 221.392 111.093 255.958 133.444L148.129 133.444ZM260.698 133.664C224.496 110.111 186.406 87.7779 147.495 67.2872L145.542 66.2589V135.755H263.912L260.698 133.664ZM148.129 133.444V70.3086C185.145 89.8691 221.392 111.093 255.958 133.444L148.129 133.444ZM443.913 276.486C428.256 261.945 412.195 247.736 395.728 233.858C391.188 230.028 386.62 226.229 382.024 222.46C353.977 199.445 325.008 177.557 295.115 156.794L294.766 156.552H145.542V278.444H446.021L443.913 276.486ZM148.129 276.133V158.863H293.88C322.703 178.891 350.746 200.04 378.008 222.31C382.742 226.175 387.444 230.07 392.113 233.997C408.435 247.7 424.376 261.745 439.936 276.133H148.129ZM17.5097 299.241V301.552H119.674V335.058H17.5097V337.368H122.261V299.241H17.5097ZM145.542 358.165V381.579L148.129 381.365V360.476H546.491V358.165L145.542 358.165ZM546.491 301.552V299.241H145.542V337.368H546.491V335.058H148.129V301.552L546.491 301.552ZM304.919 133.444C255.293 99.2474 202.885 68.4002 148.129 41.1584V17.762L145.542 17.9757V41.5532L147.534 43.5096C202.067 70.6773 254.263 101.43 303.69 135.512L304.04 135.755H546.491V133.444L304.919 133.444ZM119.674 133.444H17.5097V135.755H122.261V19.9052L119.674 20.1189L119.674 133.444ZM546.491 156.552H333.348L336.135 158.597C362.378 177.886 388.144 198.344 413.434 219.97C417.03 223.044 420.612 226.142 424.182 229.265C441.953 244.776 459.377 260.794 476.454 277.318L478.587 278.444H546.491V276.133H478.75C461.858 259.773 444.6 243.887 426.976 228.474C423.451 225.389 419.914 222.326 416.364 219.283C391.621 198.076 366.35 177.936 340.552 158.863H546.491V156.552ZM17.5097 358.165V360.476H119.674V383.722L122.261 383.508V358.165H17.5097ZM17.5097 156.552V158.863H119.674V276.133H17.5097V278.444H122.261V156.552H17.5097ZM260.698 133.664C224.496 110.111 186.406 87.7779 147.495 67.2872L145.542 66.2589V135.755H263.912L260.698 133.664ZM148.129 133.444V70.3086C185.145 89.8691 221.392 111.093 255.958 133.444L148.129 133.444ZM443.913 276.486C428.256 261.945 412.195 247.736 395.728 233.858C391.188 230.028 386.62 226.229 382.024 222.46C353.977 199.445 325.008 177.557 295.115 156.794L294.766 156.552H145.542V278.444H446.021L443.913 276.486ZM148.129 276.133V158.863H293.88C322.703 178.891 350.746 200.04 378.008 222.31C382.742 226.175 387.444 230.07 392.113 233.997C408.435 247.7 424.376 261.745 439.936 276.133H148.129ZM260.698 133.664C224.496 110.111 186.406 87.7779 147.495 67.2872L145.542 66.2589V135.755H263.912L260.698 133.664ZM148.129 133.444V70.3086C185.145 89.8691 221.392 111.093 255.958 133.444L148.129 133.444ZM443.913 276.486C428.256 261.945 412.195 247.736 395.728 233.858C391.188 230.028 386.62 226.229 382.024 222.46C353.977 199.445 325.008 177.557 295.115 156.794L294.766 156.552H145.542V278.444H446.021L443.913 276.486ZM148.129 276.133V158.863H293.88C322.703 178.891 350.746 200.04 378.008 222.31C382.742 226.175 387.444 230.07 392.113 233.997C408.435 247.7 424.376 261.745 439.936 276.133H148.129Z" fill="white"/>
<path d="M288.867 152.062C288.867 181.323 229.556 246.509 229.556 246.509C229.556 246.509 170.245 181.323 170.245 152.062C170.245 138.011 176.494 124.534 187.617 114.598C198.74 104.662 213.826 99.0802 229.556 99.0802C245.286 99.0802 260.372 104.662 271.495 114.598C282.618 124.534 288.867 138.011 288.867 152.062Z" fill="#6C63FF"/>
<path d="M256.67 149.759C256.67 154.549 255.08 159.232 252.101 163.215C249.122 167.198 244.887 170.302 239.933 172.135C234.978 173.969 229.527 174.448 224.267 173.514C219.008 172.579 214.177 170.272 210.385 166.885C206.593 163.498 204.011 159.182 202.964 154.484C201.918 149.786 202.455 144.916 204.507 140.49C206.559 136.064 210.035 132.282 214.493 129.62C218.952 126.959 224.194 125.538 229.557 125.538C233.118 125.537 236.644 126.162 239.935 127.379C243.225 128.596 246.215 130.38 248.733 132.629C251.251 134.878 253.248 137.549 254.61 140.488C255.972 143.427 256.672 146.578 256.67 149.759Z" fill="white"/>
<path d="M229.556 284.748C238.386 284.748 245.544 278.354 245.544 270.466C245.544 262.578 238.386 256.184 229.556 256.184C220.726 256.184 213.568 262.578 213.568 270.466C213.568 278.354 220.726 284.748 229.556 284.748Z" fill="#6C63FF"/>
<path d="M382.744 91.1734C395.799 91.1734 406.382 81.7194 406.382 70.0573C406.382 58.3952 395.799 48.9412 382.744 48.9412C369.689 48.9412 359.105 58.3952 359.105 70.0573C359.105 81.7194 369.689 91.1734 382.744 91.1734Z" fill="#FF6584"/>
<path d="M456.871 135.129H340.908C340.763 135.131 340.618 135.121 340.475 135.099L395.32 50.2357C395.655 49.7072 396.141 49.2675 396.728 48.9616C397.315 48.6557 397.983 48.4945 398.662 48.4945C399.342 48.4945 400.01 48.6557 400.597 48.9616C401.184 49.2675 401.67 49.7072 402.005 50.2357L438.812 107.185L440.576 109.91L456.871 135.129Z" fill="white"/>
<path opacity="0.2" d="M456.871 135.129H417.279L436.714 109.91L438.113 108.093L438.813 107.185L440.576 109.91L456.871 135.129Z" fill="black"/>
<path d="M521.438 135.129H421.14L440.576 109.91L441.975 108.094L467.301 75.2286C468.962 73.0746 472.956 72.9405 474.908 74.8223C475.039 74.9507 475.161 75.0864 475.273 75.2286L521.438 135.129Z" fill="white"/>
<path d="M528.881 254.757C535.488 254.757 540.844 249.973 540.844 244.07C540.844 238.168 535.488 233.383 528.881 233.383C522.273 233.383 516.917 238.168 516.917 244.07C516.917 249.973 522.273 254.757 528.881 254.757Z" fill="white"/>
<path d="M530.034 276.261H527.584L528.701 242.46L530.034 276.261Z" fill="#CBCBCB"/>
<path d="M528.917 248.867L531.548 245.615L528.881 249.671L528.593 249.221L528.917 248.867Z" fill="#CBCBCB"/>
<path d="M528.629 252.15L525.998 248.899L528.665 252.954L528.953 252.504L528.629 252.15Z" fill="#CBCBCB"/>
<path d="M494.863 244.502C504.621 244.502 512.532 237.435 512.532 228.718C512.532 220.001 504.621 212.934 494.863 212.934C485.104 212.934 477.193 220.001 477.193 228.718C477.193 237.435 485.104 244.502 494.863 244.502Z" fill="white"/>
<path d="M496.566 276.261H492.947L494.597 226.341L496.566 276.261Z" fill="#CBCBCB"/>
<path d="M494.916 235.801L498.801 231L494.863 236.991L494.438 236.325L494.916 235.801Z" fill="#CBCBCB"/>
<path d="M494.491 240.651L490.605 235.85L494.544 241.839L494.969 241.174L494.491 240.651Z" fill="#CBCBCB"/>
<path d="M84.6337 254.757C91.2411 254.757 96.5974 249.973 96.5974 244.07C96.5974 238.168 91.2411 233.383 84.6337 233.383C78.0262 233.383 72.6699 238.168 72.6699 244.07C72.6699 249.973 78.0262 254.757 84.6337 254.757Z" fill="white"/>
<path d="M85.7874 276.261H83.337L84.4539 242.46L85.7874 276.261Z" fill="#CBCBCB"/>
<path d="M84.6697 248.867L87.3008 245.615L84.6337 249.671L84.3459 249.221L84.6697 248.867Z" fill="#CBCBCB"/>
<path d="M84.3819 252.15L81.7508 248.899L84.4179 252.954L84.7057 252.504L84.3819 252.15Z" fill="#CBCBCB"/>
<path d="M50.6157 244.502C60.3742 244.502 68.2851 237.435 68.2851 228.718C68.2851 220.001 60.3742 212.934 50.6157 212.934C40.8571 212.934 32.9462 220.001 32.9462 228.718C32.9462 237.435 40.8571 244.502 50.6157 244.502Z" fill="white"/>
<path d="M52.3187 276.261H48.6998L50.3501 226.341L52.3187 276.261Z" fill="#CBCBCB"/>
<path d="M50.6692 235.801L54.554 231L50.616 236.991L50.1905 236.325L50.6692 235.801Z" fill="#CBCBCB"/>
<path d="M50.2437 240.651L46.3581 235.85L50.2969 241.839L50.7224 241.174L50.2437 240.651Z" fill="#CBCBCB"/>
</g>
<defs>
<clipPath id="clip0_101_58">
<rect width="564" height="407" fill="white"/>
</clipPath>
</defs>
</svg>
