<svg width="166" height="144" viewBox="0 0 166 144" fill="none" xmlns="http://www.w3.org/2000/svg">
<path d="M71.1952 82.2654C71.6812 82.6874 71.9543 83.2594 71.9543 83.8559C71.9543 84.4524 71.6812 85.0245 71.1952 85.4464L41.9993 110.776C41.7583 110.985 41.4722 111.15 41.1575 111.263C40.8427 111.376 40.5053 111.434 40.1647 111.434C39.4767 111.434 38.817 111.197 38.3307 110.774C37.8445 110.352 37.5715 109.78 37.5718 109.183C37.5721 108.586 37.8457 108.014 38.3324 107.592L67.5283 82.2654C68.0146 81.8438 68.6741 81.607 69.3617 81.607C70.0493 81.607 70.7088 81.8438 71.1952 82.2654V82.2654ZM138.873 109.265C138.741 109.637 138.5 109.973 138.174 110.24C137.849 110.507 137.448 110.696 137.013 110.789C136.578 110.882 136.122 110.876 135.691 110.77C135.259 110.665 134.866 110.464 134.551 110.188L125.748 102.552L120.966 106.703L129.772 114.345C130.088 114.619 130.316 114.96 130.436 115.334C130.555 115.708 130.561 116.103 130.452 116.479C130.344 116.855 130.125 117.201 129.817 117.483C129.51 117.764 129.123 117.972 128.695 118.085C127.11 118.502 125.462 118.711 123.806 118.707C118.735 118.707 113.506 116.823 109.57 113.408C105.806 110.143 103.62 105.879 103.468 101.579L86.4853 86.8442C86.275 86.7432 86.0818 86.6173 85.9115 86.4701L84.1056 84.9036C83.424 86.8602 82.1929 88.6394 80.5229 90.0814L48.9213 117.495C46.412 119.697 43.0307 120.988 39.4639 121.106H38.9776C37.3213 121.12 35.6783 120.849 34.1443 120.307C32.6102 119.765 31.2157 118.964 30.0421 117.95C24.9875 113.566 25.2274 106.22 30.5803 101.576L62.1819 74.1626C63.8442 72.7154 65.8937 71.6477 68.1475 71.0548L66.3481 69.4939C66.1785 69.3461 66.0333 69.1785 65.9169 68.9961L48.8792 54.2136C43.9251 54.0842 39.0132 52.1886 35.262 48.9233C30.0388 44.3867 27.9217 37.8786 29.867 32.3295C29.9977 31.958 30.2371 31.6221 30.5618 31.3547C30.8865 31.0872 31.2856 30.8972 31.72 30.8032C32.1545 30.7092 32.6097 30.7143 33.0412 30.8182C33.4727 30.922 33.8658 31.121 34.1824 31.3958L42.9881 39.0317L47.7736 34.8776L38.9549 27.2558C38.6381 26.9812 38.4088 26.6401 38.2891 26.2658C38.1693 25.8915 38.1634 25.4967 38.2718 25.1198C38.3801 24.7429 38.5992 24.3967 38.9075 24.115C39.2158 23.8334 39.603 23.6257 40.0313 23.5123C46.4216 21.8248 53.9305 23.6558 59.1602 28.1895C62.9276 31.4548 65.1128 35.7186 65.2652 40.0217L87.9605 59.7092L122.915 29.3679C123.094 29.2083 123.301 29.0736 123.527 28.9686L135.621 23.3436C136.111 23.1175 136.671 23.0338 137.22 23.1046C137.769 23.1754 138.277 23.397 138.67 23.7369C139.063 24.0768 139.32 24.5171 139.403 24.993C139.486 25.4689 139.391 25.9554 139.132 26.3811L132.622 36.8717C132.502 37.0651 132.35 37.2423 132.171 37.3976L97.204 67.7304L119.851 87.3758C124.805 87.5051 129.713 89.4008 133.468 92.6661C138.704 97.2026 140.818 103.714 138.873 109.254V109.265ZM91.6663 78.2942L75.7796 64.5129L71.9247 67.8542L87.8114 81.6354L91.6663 78.2942ZM86.427 67.3817L88.3496 69.0495L128.228 34.4558L130.466 30.8501L126.306 32.7879L86.427 67.3817ZM51.7874 50.3829L68.2545 64.6676L73.9413 59.7345C74.4277 59.3129 75.0872 59.076 75.7748 59.076C76.4624 59.076 77.1218 59.3129 77.6082 59.7345L82.7568 64.2008L84.2774 62.8817L60.8331 42.5445C60.5817 42.3265 60.3845 42.0659 60.254 41.779C60.1235 41.4921 60.0624 41.1849 60.0745 40.8767C60.2074 37.4792 58.5377 34.0142 55.49 31.3733C53.086 29.249 49.9378 27.8761 46.5383 27.4695L53.2626 33.3054C53.7487 33.7274 54.0217 34.2994 54.0217 34.8959C54.0217 35.4924 53.7487 36.0645 53.2626 36.4864L44.807 43.8214C44.3206 44.243 43.6612 44.4799 42.9736 44.4799C42.2859 44.4799 41.6265 44.243 41.1401 43.8214L34.419 37.9911C34.8891 40.9356 36.4664 43.6633 38.9062 45.7508C41.9539 48.3917 45.945 49.8401 49.8551 49.7248H49.9459C50.2877 49.7238 50.6263 49.7815 50.9424 49.8944C51.2584 50.0074 51.5456 50.1734 51.7874 50.3829ZM79.479 80.8901L72.7741 75.0767C71.4998 74.9965 70.2207 75.1577 69.0254 75.5491C67.8301 75.9406 66.7473 76.5529 65.852 77.3436L34.2472 104.765C30.9175 107.654 30.6808 112.145 33.7122 114.778C34.4429 115.402 35.3152 115.886 36.2736 116.202C37.232 116.517 38.2555 116.655 39.2791 116.609C41.5335 116.53 43.6687 115.709 45.2512 114.314L76.856 86.9061C78.4643 85.5333 79.4102 83.6811 79.5017 81.7254C79.514 81.4469 79.5064 81.1679 79.479 80.8901ZM134.308 103.607C133.837 100.661 132.256 97.9337 129.811 95.8498C126.763 93.2061 122.772 91.7604 118.865 91.8758C118.51 91.8862 118.156 91.8332 117.825 91.72C117.494 91.6068 117.194 91.4358 116.942 91.2176L93.5371 70.9142L92.0165 72.2332L97.1683 76.7051C97.6544 77.127 97.9274 77.6991 97.9274 78.2956C97.9274 78.8921 97.6544 79.4642 97.1683 79.8861L91.4848 84.8164L107.893 99.0561C108.145 99.2738 108.341 99.5339 108.472 99.8203C108.602 100.107 108.664 100.413 108.652 100.721C108.522 104.119 110.192 107.584 113.237 110.227C115.642 112.35 118.79 113.722 122.188 114.128L115.464 108.295C115.223 108.086 115.032 107.838 114.901 107.565C114.77 107.292 114.703 106.999 114.703 106.703C114.703 106.408 114.77 106.115 114.901 105.842C115.032 105.568 115.223 105.32 115.464 105.111L123.92 97.7764C124.406 97.3547 125.065 97.1179 125.753 97.1179C126.441 97.1179 127.1 97.3547 127.587 97.7764L134.308 103.607Z" fill="#D6D5A8"/>
</svg>
